<?xml version="1.0" encoding="UTF-8"?>
<svg version="1.1" xmlns="http://www.w3.org/2000/svg" width="512" height="512">
<path d="M0 0 C3.87023422 3.32188482 6.20822935 6.43826807 7.5625 11.375 C8.30933798 21.57594174 6.99728076 31.65546606 5.63476562 41.74365234 C5.42709903 43.33180325 5.22022853 44.92005842 5.01408386 46.50840759 C4.45808331 50.77505755 3.89110673 55.04018166 3.32198906 59.30509901 C2.7269157 63.77917592 2.14216793 68.25460235 1.55627441 72.72988892 C0.4478898 81.18417618 -0.6696347 89.63722834 -1.7905345 98.08986437 C-3.0673176 107.72147237 -4.33377402 117.35442949 -5.59941006 126.98750758 C-8.20070457 146.78484949 -10.81481567 166.58048115 -13.4375 186.375 C-12.75758436 186.37738835 -12.07766872 186.37977671 -11.37714958 186.38223743 C5.17359777 186.44139669 21.724181 186.51695261 38.27476692 186.61071491 C46.27854215 186.65566325 54.28227298 186.69508011 62.28613281 186.72143555 C69.26303459 186.74442345 76.23979576 186.77783026 83.21658599 186.82370156 C86.91009913 186.84762322 90.6034731 186.86635887 94.29706192 186.87261391 C98.42236395 186.87979539 102.54718212 186.91023933 106.67236328 186.94262695 C107.89443985 186.94119186 109.11651642 186.93975677 110.37562561 186.9382782 C117.75353443 187.02033515 122.3840164 187.72626367 128.1875 192.5625 C133.07115469 198.34577529 135.44671014 203.62101852 135.0480957 211.31616211 C133.54203962 220.80302819 126.65561611 229.72518347 121.5625 237.6875 C120.22670583 239.800049 118.89209851 241.91334886 117.55859375 244.02734375 C116.88940918 245.08679199 116.22022461 246.14624023 115.53076172 247.23779297 C112.5140531 252.04611667 109.5663345 256.89532107 106.625 261.75 C99.66501668 273.22323602 92.63504586 284.6525867 85.59472656 296.07666016 C82.24828958 301.50798688 78.90552005 306.94156971 75.5625 312.375 C71.54091794 318.91130114 67.51851598 325.44709003 63.4921875 331.98046875 C57.09311494 342.36675629 50.70881143 352.76126217 44.375 363.1875 C39.48634331 371.23415755 34.5572231 379.25431219 29.59472656 387.25561523 C20.12384372 402.52677236 10.70502086 417.82985474 1.375 433.1875 C-3.50805816 441.2248999 -8.42778131 449.23821292 -13.38989258 457.22705078 C-16.46496828 462.17981108 -19.52269619 467.14270563 -22.5625 472.1171875 C-23.63049535 473.86225832 -24.69868921 475.60720751 -25.76690674 477.35214233 C-26.77831996 479.00658908 -27.78643521 480.66305058 -28.79443359 482.31958008 C-41.75248462 503.47999487 -41.75248462 503.47999487 -50.4375 506.375 C-57.99993008 507.00606462 -65.31621319 507.39723759 -71.4375 502.375 C-78.18749974 495.01809239 -78.78644843 489.19942382 -78.52562141 479.39090109 C-78.25517463 473.20405109 -77.43928349 467.05805699 -76.69335938 460.91455078 C-76.50547263 459.31652874 -76.31830402 457.71842212 -76.13179016 456.12023926 C-75.62872128 451.8269359 -75.11574883 447.53486999 -74.60084724 443.2429719 C-74.06246529 438.74070659 -73.53339711 434.23734675 -73.0032959 429.73410034 C-72.00045263 421.22687092 -70.98936357 412.7206432 -69.97523069 404.21475303 C-68.82006544 394.52250914 -67.67421506 384.82917102 -66.52910519 375.1357348 C-64.17552259 355.21426427 -61.81037774 335.29418085 -59.4375 315.375 C-60.10526459 315.37868717 -60.77302917 315.38237434 -61.46102905 315.38617325 C-77.72859657 315.47461003 -93.99608769 315.54075119 -110.26383972 315.58224869 C-118.13089648 315.60285132 -125.99779251 315.63092768 -133.86474609 315.67675781 C-140.72365683 315.7166963 -147.58245113 315.74244953 -154.44147491 315.75135398 C-158.07146117 315.75655694 -161.7011144 315.76873712 -165.33099365 315.79792023 C-169.38877981 315.83027727 -173.44599141 315.83095494 -177.50390625 315.82910156 C-178.70009079 315.84348267 -179.89627533 315.85786377 -181.12870789 315.87268066 C-188.88593609 315.83436557 -194.74626393 315.02421061 -200.49609375 309.33984375 C-200.95113281 308.67082031 -201.40617187 308.00179688 -201.875 307.3125 C-202.34808594 306.64089844 -202.82117188 305.96929687 -203.30859375 305.27734375 C-206.41043131 300.0503718 -206.12177774 294.24023775 -205.4375 288.375 C-204.03009316 284.04068514 -201.79496267 280.25065644 -199.4375 276.375 C-198.79288818 275.30693115 -198.79288818 275.30693115 -198.13525391 274.21728516 C-194.91159621 268.90403601 -191.61725186 263.63641268 -188.31298828 258.37304688 C-185.01391991 253.09934737 -181.75805315 247.79910104 -178.5 242.5 C-177.82622314 241.40518311 -177.15244629 240.31036621 -176.45825195 239.18237305 C-172.03421604 231.98860742 -167.63486708 224.78019373 -163.25 217.5625 C-158.35995511 209.5136001 -153.42990761 201.49091344 -148.46533203 193.48779297 C-144.17036652 186.56346738 -139.89400491 179.62785926 -135.625 172.6875 C-134.95355957 171.59590576 -134.28211914 170.50431152 -133.59033203 169.37963867 C-132.22209668 167.15499176 -130.85393296 164.93030079 -129.48583984 162.70556641 C-126.13756312 157.26132432 -122.78745241 151.8182111 -119.4375 146.375 C-118.10415758 144.20833892 -116.77082426 142.04167225 -115.4375 139.875 C-107.4375 126.875 -107.4375 126.875 -105.43701172 123.62426758 C-104.10523332 121.46008703 -102.77352746 119.29586185 -101.44189453 117.1315918 C-98.08536745 111.67651703 -94.72753814 106.22225164 -91.3671875 100.76953125 C-84.96811494 90.38324371 -78.58381143 79.98873783 -72.25 69.5625 C-67.36696081 61.52508877 -62.44721855 53.51178685 -57.48510742 45.52294922 C-54.41003172 40.57018892 -51.35230381 35.60729437 -48.3125 30.6328125 C-47.24450465 28.88774168 -46.17631079 27.14279249 -45.10809326 25.39785767 C-44.09668004 23.74341092 -43.08856479 22.08694942 -42.08056641 20.43041992 C-29.30093687 -0.43863371 -29.30093687 -0.43863371 -19.75 -4 C-12.81001575 -5.45965252 -5.83399965 -3.97624557 0 0 Z M-50.4375 118.375 C-51.27102842 119.57436874 -52.0534759 120.8092188 -52.81640625 122.0546875 C-53.31696533 122.86768311 -53.81752441 123.68067871 -54.33325195 124.51831055 C-54.88327881 125.41976807 -55.43330566 126.32122559 -56 127.25 C-56.57645264 128.1881958 -57.15290527 129.1263916 -57.74682617 130.09301758 C-58.99608682 132.12670932 -60.24382535 134.16133666 -61.49023438 136.19677734 C-64.07305717 140.41232238 -66.66653089 144.62127082 -69.25952148 148.83056641 C-71.97145589 153.23392562 -74.68020245 157.6392427 -77.38916016 162.04443359 C-80.73743688 167.48867568 -84.08754759 172.9317889 -87.4375 178.375 C-88.77084242 180.54166108 -90.10417574 182.70832775 -91.4375 184.875 C-99.4375 197.875 -99.4375 197.875 -101.43798828 201.12573242 C-102.76976668 203.28991297 -104.10147254 205.45413815 -105.43310547 207.6184082 C-108.78963255 213.07348297 -112.14746186 218.52774836 -115.5078125 223.98046875 C-119.48933901 230.44226697 -123.46585736 236.90712215 -127.4375 243.375 C-128.10185059 244.45668457 -128.76620117 245.53836914 -129.45068359 246.65283203 C-131.3867852 249.80839856 -133.3190614 252.96627209 -135.25 256.125 C-136.12132568 257.54462036 -136.12132568 257.54462036 -137.01025391 258.99291992 C-137.54956543 259.8769751 -138.08887695 260.76103027 -138.64453125 261.671875 C-139.1135083 262.43854492 -139.58248535 263.20521484 -140.06567383 263.99511719 C-141.64388783 266.73304744 -143.03350418 269.54443778 -144.4375 272.375 C-143.8470414 272.37646656 -143.25658279 272.37793312 -142.64823151 272.37944412 C-128.25816273 272.41655149 -113.86830677 272.4756181 -99.4784317 272.55890274 C-92.51947155 272.59865384 -85.56062383 272.63106616 -78.6015625 272.64599609 C-71.88407216 272.66042863 -65.16698059 272.69558453 -58.44963074 272.74330902 C-55.88847383 272.75813176 -53.32726717 272.76604152 -50.7660675 272.76688385 C-47.1750484 272.76925241 -43.58499333 272.79632596 -39.99414062 272.82910156 C-38.41025543 272.82155602 -38.41025543 272.82155602 -36.79437256 272.81385803 C-29.26280722 272.92001921 -23.61882539 274.27965638 -18.125 279.625 C-10.34188814 292.3085897 -14.50553511 308.06199538 -16.24055862 322.20450592 C-16.54755156 324.70990505 -16.84819817 327.21599927 -17.14730835 329.72235107 C-17.99710892 336.83401696 -18.85795338 343.94433129 -19.72265625 351.05419922 C-20.25508708 355.43558089 -20.78049328 359.81775992 -21.3016777 364.20049286 C-21.50065416 365.86101346 -21.70241267 367.5212032 -21.90703201 369.1810379 C-22.19148746 371.48877235 -22.46707102 373.79740855 -22.74072266 376.10644531 C-22.86999397 377.12717888 -22.86999397 377.12717888 -23.00187683 378.16853333 C-23.38440309 381.47536833 -23.5519724 384.20572106 -22.4375 387.375 C-15.41033064 376.34517557 -8.50322673 365.25099558 -1.72216797 354.06811523 C2.17212877 347.64898586 6.10137719 341.25308932 10.0625 334.875 C14.60115208 327.56483642 19.09634684 320.22967622 23.5625 312.875 C28.5130162 304.72429462 33.50319212 296.59973556 38.52954102 288.49560547 C45.57133247 277.14102133 52.57468088 265.76286928 59.5625 254.375 C60.24715332 253.25947754 60.93180664 252.14395508 61.63720703 250.99462891 C63.61511005 247.76895916 65.58948545 244.54116163 67.5625 241.3125 C68.47116821 239.83064209 68.47116821 239.83064209 69.39819336 238.31884766 C69.94741455 237.41827637 70.49663574 236.51770508 71.0625 235.58984375 C71.78953125 234.40056274 71.78953125 234.40056274 72.53125 233.18725586 C73.6449291 231.57766503 73.6449291 231.57766503 73.5625 230.375 C72.96173393 230.37353344 72.36096786 230.37206688 71.74199677 230.37055588 C57.10157576 230.33345055 42.46135615 230.27438656 27.82112885 230.19109726 C20.74110043 230.15134405 13.66118256 230.11893279 6.58105469 230.10400391 C-0.25313451 230.08957273 -7.08696857 230.05441905 -13.92100525 230.00669098 C-16.52682007 229.99186684 -19.1326838 229.9839584 -21.73854065 229.98311615 C-25.39181957 229.98074801 -29.04415033 229.95367777 -32.69726562 229.92089844 C-34.30920303 229.92844398 -34.30920303 229.92844398 -35.95370483 229.93614197 C-42.92095381 229.83958139 -48.75432431 228.88136248 -53.95755768 223.92791367 C-60.34431291 216.60798623 -59.96445704 209.6088118 -59.4375 200.375 C-58.93302107 194.38816886 -58.08112914 188.44446404 -57.25 182.49609375 C-57.02482148 180.8280988 -56.80063866 179.15996917 -56.57739258 177.49171448 C-55.99397271 173.14798395 -55.39953547 168.80584232 -54.80187988 164.46405029 C-53.84298046 157.48625 -52.89977362 150.50632465 -51.95932007 143.52601814 C-51.63096057 141.10258532 -51.29694831 138.67998276 -50.9621582 136.25743103 C-50.75977336 134.76986768 -50.55753563 133.28228431 -50.35546875 131.79467773 C-50.17781982 130.50311264 -50.0001709 129.21154755 -49.81713867 127.88084412 C-49.47007517 124.67582152 -49.36466196 121.59492557 -49.4375 118.375 C-49.7675 118.375 -50.0975 118.375 -50.4375 118.375 Z " fill="#008FFF" transform="translate(291.4375,4.625)"/>
</svg>
