<?xml version="1.0" encoding="UTF-8"?>
<svg version="1.1" xmlns="http://www.w3.org/2000/svg" width="512" height="512">
<path d="M0 0 C4.07371199 0.00914608 8.14735849 -0.00496601 12.22105694 -0.01591969 C20.17765482 -0.03360871 28.13410087 -0.02990815 36.09070444 -0.01826912 C42.56324498 -0.00919692 49.03574329 -0.00802708 55.50828838 -0.01236439 C56.8956167 -0.01328379 56.8956167 -0.01328379 58.31097186 -0.01422176 C60.19047309 -0.01550079 62.06997432 -0.01679765 63.94947553 -0.01811212 C81.53031666 -0.02948975 99.11107405 -0.0164486 116.69190145 0.00508934 C131.74277919 0.02295775 146.79353347 0.01985285 161.84440899 0.0014143 C179.36683906 -0.02004238 196.88919593 -0.02839137 214.41163731 -0.01613665 C216.28382014 -0.01486259 218.15600299 -0.0136051 220.02818584 -0.01236439 C220.9490843 -0.01174729 221.86998275 -0.01113018 222.81878722 -0.01049438 C229.27568975 -0.00705584 235.73254545 -0.01283737 242.18944073 -0.0222826 C250.06951944 -0.03355746 257.949439 -0.03034815 265.82949972 -0.00915962 C269.84197168 0.00127756 273.8541793 0.0055997 277.86664867 -0.00775623 C309.72328262 -0.10471402 337.99599089 4.32507475 361.76823711 27.52289867 C362.61386211 28.32727367 363.45948711 29.13164867 364.33073711 29.96039867 C365.53729961 31.22883617 365.53729961 31.22883617 366.76823711 32.52289867 C367.76597149 33.52836742 367.76597149 33.52836742 368.78386211 34.55414867 C391.33652473 58.18074761 394.3945222 87.69469143 394.29113579 118.75466156 C394.2819897 122.82837355 394.2961018 126.90202005 394.30705547 130.9757185 C394.3247445 138.93231638 394.32104394 146.88876243 394.30940491 154.845366 C394.30033271 161.31790654 394.29916287 167.79040485 394.30350018 174.26294994 C394.30411311 175.18783549 394.30472604 176.11272104 394.30535755 177.06563342 C394.30663658 178.94513465 394.30793344 180.82463588 394.30924791 182.70413709 C394.32062553 200.28497822 394.30758439 217.86573561 394.28604645 235.44656301 C394.26817804 250.49744075 394.27128294 265.54819503 394.28972149 280.59907055 C394.31117816 298.12150062 394.31952716 315.64385749 394.30727243 333.16629887 C394.30599838 335.0384817 394.30474089 336.91066455 394.30350018 338.7828474 C394.30288307 339.70374586 394.30226597 340.62464431 394.30163017 341.57344878 C394.29819163 348.03035131 394.30397316 354.48720701 394.31341839 360.94410229 C394.32469325 368.824181 394.32148393 376.70410056 394.30029541 384.58416128 C394.28985823 388.59663324 394.28553609 392.60884086 394.29889202 396.62131023 C394.3958498 428.47794418 389.96606104 456.75065245 366.76823711 480.52289867 C365.96386211 481.36852367 365.15948711 482.21414867 364.33073711 483.08539867 C363.48511211 483.88977367 362.63948711 484.69414867 361.76823711 485.52289867 C361.09792461 486.18805492 360.42761211 486.85321117 359.73698711 487.53852367 C336.11038818 510.09118629 306.59644436 513.14918376 275.53647423 513.04579735 C271.46276224 513.03665126 267.38911574 513.05076336 263.31541729 513.06171703 C255.35881941 513.07940606 247.40237336 513.0757055 239.44576979 513.06406647 C232.97322924 513.05499427 226.50073094 513.05382443 220.02818584 513.05816174 C218.64085753 513.05908113 218.64085753 513.05908113 217.22550237 513.06001911 C215.34600114 513.06129814 213.46649991 513.062595 211.5869987 513.06390947 C194.00615757 513.07528709 176.42540018 513.06224595 158.84457278 513.04070801 C143.79369504 513.0228396 128.74294075 513.0259445 113.69206524 513.04438305 C96.16963517 513.06583972 78.6472783 513.07418872 61.12483692 513.06193399 C59.25265409 513.06065994 57.38047124 513.05940245 55.50828838 513.05816174 C54.58738993 513.05754463 53.66649148 513.05692753 52.71768701 513.05629173 C46.26078448 513.05285319 39.80392878 513.05863472 33.3470335 513.06807995 C25.46695479 513.07935481 17.58703523 513.07614549 9.70697451 513.05495697 C5.69450255 513.04451979 1.68229493 513.04019765 -2.33017445 513.05355358 C-34.18680839 513.15051136 -62.45951666 508.7207226 -86.23176289 485.52289867 C-87.50020039 484.31633617 -87.50020039 484.31633617 -88.79426289 483.08539867 C-89.59863789 482.23977367 -90.40301289 481.39414867 -91.23176289 480.52289867 C-91.89691914 479.85258617 -92.56207539 479.18227367 -93.24738789 478.49164867 C-115.8000505 454.86504974 -118.85804797 425.35110592 -118.75466156 394.29113579 C-118.74551548 390.2174238 -118.75962757 386.1437773 -118.77058125 382.07007885 C-118.78827027 374.11348097 -118.78456971 366.15703492 -118.77293068 358.20043135 C-118.76385848 351.7278908 -118.76268864 345.2553925 -118.76702595 338.7828474 C-118.76763888 337.85796186 -118.76825181 336.93307631 -118.76888332 335.98016393 C-118.77016235 334.1006627 -118.77145921 332.22116147 -118.77277368 330.34166026 C-118.78415131 312.76081913 -118.77111016 295.18006174 -118.74957222 277.59923434 C-118.73170381 262.5483566 -118.73480871 247.49760231 -118.75324726 232.4467268 C-118.77470394 214.92429673 -118.78305293 197.40193986 -118.77079821 179.87949848 C-118.76952415 178.00731565 -118.76826666 176.1351328 -118.76702595 174.26294994 C-118.76640885 173.34205149 -118.76579174 172.42115304 -118.76515594 171.47234857 C-118.7617174 165.01544604 -118.76749893 158.55859034 -118.77694416 152.10169506 C-118.78821902 144.22161635 -118.78500971 136.34169679 -118.76382118 128.46163607 C-118.753384 124.44916411 -118.74906186 120.43695649 -118.76241779 116.42448711 C-118.85937558 84.56785317 -114.42958681 56.2951449 -91.23176289 32.52289867 C-90.42738789 31.67727367 -89.62301289 30.83164867 -88.79426289 29.96039867 C-87.94863789 29.15602367 -87.10301289 28.35164867 -86.23176289 27.52289867 C-85.56145039 26.85774242 -84.89113789 26.19258617 -84.20051289 25.50727367 C-60.57391395 2.95461106 -31.05997013 -0.10338641 0 0 Z " fill="#008FFF" transform="translate(118.23176288604736,-0.5228986740112305)"/>
<path d="M0 0 C5.67476113 1.96434039 9.31400331 5.62800662 12 11 C12.42392936 16.98723774 11.8001647 22.9294523 11.046875 28.86328125 C10.89674202 30.0949427 10.89674202 30.0949427 10.74357605 31.35148621 C10.41810815 34.00590078 10.08437833 36.65919438 9.75 39.3125 C9.52009278 41.16794758 9.29035805 43.02341655 9.06079102 44.87890625 C7.65048391 56.2018007 6.11757481 67.50019747 4.45239258 78.78857422 C2.94237897 89.12008581 1.68978061 99.47716419 0.48217773 109.84765625 C-0.42826781 117.58864255 -1.45133604 125.30355192 -2.56420898 133.01782227 C-2.70265984 133.98204353 -2.84111069 134.9462648 -2.98375702 135.9397049 C-3.32179924 138.29323898 -3.66056103 140.64666703 -4 143 C-2.76051605 142.99111755 -1.5210321 142.98223511 -0.24398804 142.9730835 C11.43871107 142.89198602 23.12135304 142.83202884 34.80426979 142.79275131 C40.81055053 142.77187945 46.81660398 142.74356854 52.82275391 142.69824219 C58.61937061 142.65477102 64.41576872 142.63085987 70.21253586 142.62049103 C72.4237347 142.61310202 74.63492162 142.59867304 76.84602737 142.57707977 C79.944001 142.5480296 83.04107217 142.54404477 86.13916016 142.54589844 C87.05266235 142.53151733 87.96616455 142.51713623 88.90734863 142.50231934 C94.4464263 142.53816587 97.61265299 143.29385819 102 147 C106.00611079 151.54747712 107.44774767 154.345477 107.32836914 160.3425293 C106.34034095 168.33857899 100.28962607 176.00104966 96.0625 182.6875 C94.90671506 184.53463277 93.75179772 186.38230865 92.59765625 188.23046875 C92.00484863 189.17841309 91.41204102 190.12635742 90.80126953 191.10302734 C87.83111886 195.87990561 84.91663994 200.69033096 82 205.5 C77.05003544 213.65103713 72.05930459 221.77526975 67.03295898 229.87939453 C57.56192941 245.15102007 48.14276791 260.45444809 38.8125 275.8125 C33.92382433 283.85914618 28.99472322 291.87931199 24.03222656 299.88061523 C19.69677151 306.87124286 15.37509995 313.87024844 11.0625 320.875 C10.38880371 321.96925293 9.71510742 323.06350586 9.02099609 324.19091797 C5.16244912 330.46488013 1.32326911 336.75011231 -2.49633789 343.04785156 C-4.77167273 346.79710163 -7.05508384 350.54137186 -9.34179688 354.28369141 C-10.45505054 356.10731631 -11.56569401 357.932537 -12.67382812 359.75927734 C-14.27186142 362.38791948 -15.88393653 365.00741451 -17.5 367.625 C-17.96825195 368.40093506 -18.43650391 369.17687012 -18.91894531 369.97631836 C-22.30178026 375.40886029 -25.70592686 379.90197562 -32 382 C-37.61599916 382.36826224 -41.17665989 382.21556007 -46 379 C-49.2139824 375.82076336 -51.81512061 372.75221679 -52.12992859 368.06581116 C-52.10438859 362.55161337 -51.71341352 357.15957497 -51.08203125 351.68359375 C-50.98467682 350.8065126 -50.88732239 349.92943146 -50.78701782 349.02577209 C-50.46741248 346.16239896 -50.14021244 343.29995571 -49.8125 340.4375 C-49.58521227 338.42059044 -49.35808244 336.40366308 -49.13110352 334.38671875 C-47.49901349 319.97396317 -45.75380938 305.57598551 -43.8762207 291.19311523 C-41.63126785 273.8290773 -39.85261153 256.40933362 -38 239 C-39.2144278 239.00888245 -40.42885559 239.01776489 -41.68008423 239.0269165 C-53.12732385 239.10801843 -64.57450515 239.16797329 -76.02196693 239.20724869 C-81.90718184 239.22811943 -87.79216472 239.25642827 -93.67724609 239.30175781 C-99.35715387 239.34523301 -105.03683854 239.36914097 -110.71689987 239.37950897 C-112.88344205 239.38689727 -115.04997208 239.40132486 -117.21641922 239.42292023 C-120.25213213 239.45197586 -123.28692422 239.45595502 -126.32275391 239.45410156 C-127.21755463 239.46848267 -128.11235535 239.48286377 -129.03427124 239.49768066 C-134.52559888 239.46142507 -137.64560345 238.66168851 -142 235 C-146.43743321 229.96291365 -147.54943719 226.79646191 -147.47363281 220.13867188 C-146.57667051 214.19467836 -143.16522652 209.66420783 -139.875 204.75 C-139.14016979 203.61279356 -138.40803383 202.4738421 -137.6784668 201.33325195 C-136.18750556 199.00618617 -134.68592263 196.68656031 -133.17626953 194.37158203 C-129.93727308 189.38221972 -126.88082583 184.28289424 -123.8125 179.1875 C-118.92594452 171.13650798 -113.99238474 163.11587656 -109.02783203 155.11279297 C-104.73286652 148.18846738 -100.45650491 141.25285926 -96.1875 134.3125 C-95.51605957 133.22090576 -94.84461914 132.12931152 -94.15283203 131.00463867 C-92.78459668 128.77999176 -91.41643296 126.55530079 -90.04833984 124.33056641 C-86.70006312 118.88632432 -83.34995241 113.4432111 -80 108 C-78.66665758 105.83333892 -77.33332426 103.66667225 -76 101.5 C-68 88.5 -68 88.5 -65.99951172 85.24926758 C-64.66773332 83.08508703 -63.33602746 80.92086185 -62.00439453 78.7565918 C-58.64786745 73.30151703 -55.29003814 67.84725164 -51.9296875 62.39453125 C-50.57802814 60.2005805 -49.22646512 58.0065704 -47.875 55.8125 C-47.21491943 54.7409668 -46.55483887 53.66943359 -45.87475586 52.56542969 C-42.01455672 46.29278455 -38.17652975 40.00726738 -34.35791016 33.70922852 C-31.58173527 29.13348527 -28.79199384 24.56610136 -26 20 C-25.5447998 19.25137695 -25.08959961 18.50275391 -24.62060547 17.73144531 C-23.42486343 15.7721242 -22.21549276 13.82211018 -21 11.875 C-20.0409375 10.32425781 -20.0409375 10.32425781 -19.0625 8.7421875 C-13.75067398 1.67987336 -8.71962164 -0.79537089 0 0 Z " fill="#FDFEFF" transform="translate(276,65)"/>
<path d="M0 0 C0.33 0 0.66 0 1 0 C1.17596664 4.57513274 0.944711 8.73223323 0.12109375 13.23828125 C-1.23492909 21.10393503 -2.13789696 29.01220585 -3.0625 36.9375 C-3.32270088 39.15947538 -3.58377706 41.38133358 -3.84727478 43.60292053 C-4.08398525 45.5995313 -4.3176003 47.59650833 -4.55102539 49.59350586 C-4.82071846 51.6397415 -5.13645262 53.68177094 -5.54150391 55.70556641 C-6.25564791 59.27932857 -6.26513579 62.80308639 -6.3125 66.4375 C-6.34150391 67.17548828 -6.37050781 67.91347656 -6.40039062 68.67382812 C-6.460795 73.90112948 -5.59468665 76.95225168 -2 81 C3.02162005 84.17235638 7.10326571 84.44254843 12.85107422 84.43237305 C13.72001816 84.4425647 14.5889621 84.45275635 15.48423767 84.46325684 C18.34112042 84.49332232 21.1976675 84.50264293 24.0546875 84.51171875 C26.04152536 84.52857021 28.02835258 84.54672108 30.01516724 84.56611633 C35.23307981 84.61357164 40.45094928 84.64340999 45.66900635 84.66955566 C50.99817416 84.69938366 56.32719351 84.74590634 61.65625 84.79101562 C72.10408894 84.87699795 82.55195847 84.94436587 93 85 C91.64140523 88.4814626 90.15571311 91.59359889 88.19921875 94.78125 C87.64105469 95.69455078 87.08289063 96.60785156 86.5078125 97.54882812 C85.60675781 99.0096582 85.60675781 99.0096582 84.6875 100.5 C84.06230469 101.52029297 83.43710937 102.54058594 82.79296875 103.59179688 C78.18485297 111.1032114 73.54477369 118.5949693 68.8972168 126.08203125 C64.89599057 132.53332091 60.94026869 139.01132857 57 145.5 C52.05953756 153.63415251 47.08412851 161.74516122 42.06152344 169.82885742 C38.90909272 174.90515564 35.77775118 179.99364035 32.6640625 185.09375 C31.55656408 186.90476794 30.44881212 188.71563058 29.34100342 190.52645874 C28.61579086 191.71367734 27.89186475 192.90168275 27.16925049 194.09048462 C26.16290921 195.74586675 25.1518808 197.39839677 24.140625 199.05078125 C23.55829102 200.00637939 22.97595703 200.96197754 22.37597656 201.9465332 C21.9219043 202.62417725 21.46783203 203.30182129 21 204 C20.67 204 20.34 204 20 204 C19.60782131 194.02008429 21.07754065 184.30745866 22.375 174.4375 C22.5995563 172.69994697 22.82351842 170.96231704 23.046875 169.22460938 C23.21174408 167.94247055 23.21174408 167.94247055 23.37994385 166.63442993 C23.48917175 165.78440399 23.59839966 164.93437805 23.7109375 164.05859375 C23.81968201 163.2131601 23.92842651 162.36772644 24.04046631 161.49667358 C24.3613983 158.9979201 24.6810153 156.49900277 25 154 C25.15353943 152.80132294 25.15353943 152.80132294 25.31018066 151.57843018 C25.60038092 149.29382597 25.88336524 147.00844527 26.1640625 144.72265625 C26.40697021 142.77178101 26.40697021 142.77178101 26.65478516 140.78149414 C27.62208955 132.3902584 27.62208955 132.3902584 24.875 124.6875 C24.48054688 124.05199219 24.08609375 123.41648437 23.6796875 122.76171875 C20.41082203 119.33321101 16.64404888 117.85376934 11.97561646 117.60127258 C10.42809879 117.5750622 8.8802566 117.56482228 7.33251953 117.56762695 C6.48308273 117.5574353 5.63364594 117.54724365 4.75846863 117.53674316 C1.96651553 117.50668454 -0.82509405 117.49735816 -3.6171875 117.48828125 C-5.55918512 117.47142928 -7.50117186 117.45327833 -9.44314575 117.43388367 C-14.54269005 117.38643392 -19.64219024 117.356592 -24.74188232 117.33044434 C-29.95040595 117.30061351 -35.15877774 117.25409181 -40.3671875 117.20898438 C-50.57804549 117.1230084 -60.78893478 117.05563767 -71 117 C-69.73888013 113.78485727 -68.42304001 110.83263914 -66.63671875 107.875 C-66.16911133 107.09753418 -65.70150391 106.32006836 -65.21972656 105.51904297 C-64.7140918 104.68775879 -64.20845703 103.85647461 -63.6875 103 C-62.88844238 101.67766357 -62.88844238 101.67766357 -62.07324219 100.32861328 C-57.26339277 92.3885667 -52.37833087 84.49532276 -47.48046875 76.609375 C-43.65984901 70.45691647 -39.85899369 64.29236897 -36.0625 58.125 C-35.38751465 57.02881348 -34.7125293 55.93262695 -34.01708984 54.80322266 C-30.19097748 48.58292346 -26.38741242 42.34962329 -22.60400391 36.10327148 C-17.21195902 27.20510309 -11.75285212 18.35350224 -6.1875 9.5625 C-5.58212402 8.60182617 -4.97674805 7.64115234 -4.35302734 6.65136719 C-3.79695801 5.77770508 -3.24088867 4.90404297 -2.66796875 4.00390625 C-2.17578857 3.22861572 -1.6836084 2.4533252 -1.17651367 1.65454102 C-0.78826416 1.10854248 -0.40001465 0.56254395 0 0 Z " fill="#018FFF" transform="translate(245,155)"/>
</svg>
